<?xml version="1.0" standalone="no"?>
<!DOCTYPE svg PUBLIC "-//W3C//DTD SVG 20010904//EN"
 "http://www.w3.org/TR/2001/REC-SVG-20010904/DTD/svg10.dtd">
<svg version="1.0" xmlns="http://www.w3.org/2000/svg"
 width="256.000000pt" height="256.000000pt" viewBox="0 0 256.000000 256.000000"
 preserveAspectRatio="xMidYMid meet">
<metadata>
Created by potrace 1.11, written by Peter Selinger 2001-2013
</metadata>
<g transform="translate(0.000000,256.000000) scale(0.100000,-0.100000)"
fill="#000000" stroke="none">
<path d="M1291 2304 c-35 -7 -74 -20 -87 -29 -33 -21 -33 -69 1 -91 22 -14 31
-14 87 -2 82 19 160 15 238 -13 43 -15 128 -70 157 -101 23 -25 572 -825 580
-846 4 -8 -10 -6 -41 8 -72 31 -191 49 -315 48 -188 -1 -346 -47 -428 -124
-34 -33 -37 -33 -82 -23 -57 14 -181 14 -240 0 -43 -9 -46 -8 -83 24 -49 45
-99 70 -195 97 -65 19 -103 22 -230 23 -169 0 -166 -3 -75 67 31 23 59 45 62
48 31 33 417 331 455 351 106 58 245 71 367 35 65 -20 94 -12 104 29 17 67
-79 108 -251 108 -111 0 -181 -16 -274 -64 -44 -23 -241 -172 -406 -308 -11
-9 -74 -59 -140 -111 -66 -52 -122 -97 -125 -100 -3 -3 -59 -48 -125 -100 -66
-52 -122 -97 -125 -100 -3 -3 -24 -20 -46 -38 -55 -42 -65 -79 -29 -109 15
-13 31 -21 36 -18 12 8 16 -8 23 -85 10 -116 32 -185 86 -267 83 -127 186
-203 325 -241 176 -47 355 5 498 145 59 58 108 137 138 223 18 51 23 88 23
171 l1 105 40 3 c50 4 69 4 125 1 l45 -3 1 -111 c0 -84 5 -125 21 -168 107
-302 423 -458 701 -345 196 80 337 279 348 490 1 40 3 75 4 79 0 4 6 5 13 2
19 -7 67 34 67 57 0 11 -57 104 -127 207 -71 103 -153 223 -183 268 -30 44
-93 137 -139 205 -47 68 -129 189 -183 269 -55 80 -124 168 -154 197 -127 117
-302 169 -463 137z"/>
</g>
</svg>
